<svg xmlns="http://www.w3.org/2000/svg" xmlns:xlink="http://www.w3.org/1999/xlink" width="1308" zoomAndPan="magnify" viewBox="0 0 980.88 947.999989" height="1264" preserveAspectRatio="xMidYMid meet" version="1.0"><defs><g/><clipPath id="a1b44e414b"><path d="M 36.132812 101.90625 L 882 101.90625 L 882 947.804688 L 36.132812 947.804688 Z M 36.132812 101.90625 " clip-rule="nonzero"/></clipPath><clipPath id="9c65578dfa"><path d="M 54.59375 120.367188 L 862.996094 120.367188 L 862.996094 928.769531 L 54.59375 928.769531 Z M 54.59375 120.367188 " clip-rule="nonzero"/></clipPath><clipPath id="e320b151f4"><rect x="0" width="178" y="0" height="340"/></clipPath><clipPath id="5a91fdb88c"><rect x="0" width="783" y="0" height="586"/></clipPath><clipPath id="5200588e18"><rect x="0" width="281" y="0" height="326"/></clipPath></defs><g clip-path="url(#a1b44e414b)"><path fill="#000000" d="M 458.953125 947.546875 C 225.808594 947.546875 36.132812 757.867188 36.132812 524.726562 C 36.132812 291.582031 225.808594 101.90625 458.953125 101.90625 C 692.09375 101.90625 881.769531 291.582031 881.769531 524.726562 C 881.769531 757.867188 692.09375 947.546875 458.953125 947.546875 Z M 458.953125 109.398438 C 229.941406 109.398438 43.625 295.714844 43.625 524.726562 C 43.625 753.738281 229.941406 940.046875 458.953125 940.046875 C 687.960938 940.046875 874.269531 753.738281 874.269531 524.726562 C 874.273438 295.714844 687.960938 109.398438 458.953125 109.398438 Z M 458.953125 109.398438 " fill-opacity="1" fill-rule="nonzero"/></g><g clip-path="url(#9c65578dfa)"><path fill="#000000" d="M 458.953125 929.085938 C 235.988281 929.085938 54.59375 747.691406 54.59375 524.726562 C 54.59375 301.761719 235.988281 120.367188 458.953125 120.367188 C 681.914062 120.367188 863.3125 301.761719 863.3125 524.726562 C 863.3125 747.691406 681.914062 929.085938 458.953125 929.085938 Z M 458.953125 127.535156 C 239.941406 127.535156 61.757812 305.714844 61.757812 524.726562 C 61.757812 743.742188 239.941406 921.914062 458.953125 921.914062 C 677.964844 921.914062 856.140625 743.742188 856.140625 524.726562 C 856.140625 305.714844 677.964844 127.535156 458.953125 127.535156 Z M 458.953125 127.535156 " fill-opacity="1" fill-rule="nonzero"/></g><g transform="matrix(1, 0, 0, 1, 214, 299)"><g clip-path="url(#e320b151f4)"><g fill="#000000" fill-opacity="1"><g transform="translate(0.83267, 252.617118)"><g><path d="M 129.5 -19.5625 C 132.945312 -14.0625 136 -9.914062 138.65625 -7.125 C 141.3125 -4.332031 143.40625 -2.46875 144.9375 -1.53125 C 146.476562 -0.601562 147.25 -0.140625 147.25 -0.140625 L 118.609375 -0.140625 C 118.609375 -0.140625 118.75 -0.367188 119.03125 -0.828125 C 119.3125 -1.296875 119.425781 -2.207031 119.375 -3.5625 C 119.332031 -4.914062 118.820312 -6.867188 117.84375 -9.421875 C 116.863281 -11.984375 115.113281 -15.363281 112.59375 -19.5625 L 76.96875 -77.671875 C 76.96875 -77.671875 75.734375 -77.671875 73.265625 -77.671875 C 70.804688 -77.671875 67.664062 -77.671875 63.84375 -77.671875 C 60.019531 -77.671875 55.941406 -77.671875 51.609375 -77.671875 C 47.285156 -77.671875 43.210938 -77.671875 39.390625 -77.671875 C 35.578125 -77.671875 32.457031 -77.671875 30.03125 -77.671875 C 27.613281 -77.671875 26.40625 -77.671875 26.40625 -77.671875 L 26.40625 -18.578125 C 26.40625 -13.085938 26.894531 -9.015625 27.875 -6.359375 C 28.851562 -3.703125 29.804688 -2 30.734375 -1.25 C 31.660156 -0.507812 32.125 -0.140625 32.125 -0.140625 L 3.5 -0.140625 C 3.5 -0.140625 3.984375 -0.535156 4.953125 -1.328125 C 5.929688 -2.117188 6.910156 -3.84375 7.890625 -6.5 C 8.867188 -9.15625 9.359375 -13.226562 9.359375 -18.71875 L 9.359375 -180.78125 C 9.359375 -186.363281 8.867188 -190.53125 7.890625 -193.28125 C 6.910156 -196.03125 5.929688 -197.867188 4.953125 -198.796875 C 3.984375 -199.722656 3.5 -200.1875 3.5 -200.1875 C 3.5 -200.1875 4.914062 -200.1875 7.75 -200.1875 C 10.59375 -200.1875 14.390625 -200.1875 19.140625 -200.1875 C 23.890625 -200.1875 29.101562 -200.1875 34.78125 -200.1875 C 40.46875 -200.1875 46.21875 -200.1875 52.03125 -200.1875 C 57.851562 -200.1875 63.253906 -200.1875 68.234375 -200.1875 C 73.222656 -200.1875 77.347656 -200.1875 80.609375 -200.1875 C 83.867188 -200.1875 85.78125 -200.1875 86.34375 -200.1875 C 95.46875 -200.1875 104.125 -198.8125 112.3125 -196.0625 C 120.507812 -193.320312 127.75 -189.363281 134.03125 -184.1875 C 140.320312 -179.019531 145.285156 -172.78125 148.921875 -165.46875 C 152.554688 -158.164062 154.375 -149.953125 154.375 -140.828125 C 154.375 -128.804688 152.320312 -118.394531 148.21875 -109.59375 C 144.125 -100.789062 137.628906 -93.78125 128.734375 -88.5625 C 119.835938 -83.351562 108.125 -80.003906 93.59375 -78.515625 Z M 67.609375 -82.703125 C 77.390625 -82.703125 86.445312 -83.46875 94.78125 -85 C 103.125 -86.539062 110.4375 -89.359375 116.71875 -93.453125 C 123.007812 -97.554688 127.898438 -103.378906 131.390625 -110.921875 C 134.878906 -118.460938 136.625 -128.289062 136.625 -140.40625 C 136.625 -150.09375 134.851562 -158.359375 131.3125 -165.203125 C 127.78125 -172.046875 123.078125 -177.585938 117.203125 -181.828125 C 111.335938 -186.066406 104.84375 -189.160156 97.71875 -191.109375 C 90.59375 -193.066406 83.445312 -194.046875 76.28125 -194.046875 L 28.078125 -194.046875 C 27.609375 -192.648438 27.210938 -190.859375 26.890625 -188.671875 C 26.566406 -186.484375 26.40625 -183.851562 26.40625 -180.78125 L 26.40625 -82.703125 Z M 67.609375 -82.703125 "/></g></g></g></g></g><g transform="matrix(1, 0, 0, 1, 183, 16)"><g clip-path="url(#5a91fdb88c)"><g fill="#000000" fill-opacity="1"><g transform="translate(31.1346, 256.724348)"><g><path d="M 15.03125 -19.390625 L 18.40625 -17.25 C 18.269531 -16.625 17.992188 -15.988281 17.578125 -15.34375 C 17.171875 -14.695312 16.660156 -14.109375 16.046875 -13.578125 C 13.910156 -11.710938 11.414062 -11.195312 8.5625 -12.03125 L 1.65625 -13.96875 C 0.945312 -14.164062 0.347656 -14.21875 -0.140625 -14.125 C -0.640625 -14.039062 -1.082031 -13.832031 -1.46875 -13.5 L -1.609375 -13.375 L 5.71875 -5 L 2.078125 -1.828125 L -15.65625 -22.125 L -9.34375 -27.640625 C -6.769531 -29.890625 -4.351562 -31.054688 -2.09375 -31.140625 C 0.164062 -31.234375 2.109375 -30.347656 3.734375 -28.484375 C 4.710938 -27.359375 5.3125 -26.171875 5.53125 -24.921875 C 5.75 -23.679688 5.632812 -22.445312 5.1875 -21.21875 C 4.738281 -20 4.03125 -18.847656 3.0625 -17.765625 C 3.90625 -17.972656 4.878906 -17.914062 5.984375 -17.59375 L 9.671875 -16.640625 C 10.617188 -16.390625 11.378906 -16.3125 11.953125 -16.40625 C 12.523438 -16.507812 13.097656 -16.8125 13.671875 -17.3125 C 14.335938 -17.894531 14.789062 -18.585938 15.03125 -19.390625 Z M -6.9375 -24.390625 L -9.375 -22.265625 L -4.15625 -16.296875 L -1.90625 -18.265625 C -0.34375 -19.628906 0.597656 -20.875 0.921875 -22 C 1.253906 -23.125 0.960938 -24.210938 0.046875 -25.265625 C -1.679688 -27.242188 -4.007812 -26.953125 -6.9375 -24.390625 Z M -6.9375 -24.390625 "/></g></g></g><g fill="#000000" fill-opacity="1"><g transform="translate(70.887033, 224.607701)"><g><path d="M 4.421875 -30 L -6.0625 -23.15625 L -2.25 -17.34375 L 7.734375 -23.859375 L 10.0625 -20.296875 L 0.078125 -13.78125 L 4.03125 -7.71875 L 14.90625 -14.8125 L 16.9375 -11.0625 L 2.3125 -1.515625 L -12.421875 -24.078125 L 2.109375 -33.5625 Z M 4.421875 -30 "/></g></g></g><g fill="#000000" fill-opacity="1"><g transform="translate(112.583967, 199.449005)"><g><path d="M 2.515625 -1.15625 L -8.78125 -25.625 L -4.296875 -27.703125 L 0.375 -17.578125 L 11.953125 -22.921875 L 7.28125 -33.046875 L 11.796875 -35.140625 L 23.09375 -10.671875 L 18.578125 -8.578125 L 13.765625 -18.984375 L 2.1875 -13.640625 L 7 -3.234375 Z M 2.515625 -1.15625 "/></g></g></g><g fill="#000000" fill-opacity="1"><g transform="translate(163.48505, 178.054987)"><g><path d="M 2.53125 -0.6875 L -3.625 -26.953125 L 0.515625 -28.09375 L 15.53125 -10.6875 L 19.515625 -33.296875 L 23.65625 -34.4375 L 31.59375 -8.671875 L 27.015625 -7.421875 L 22.0625 -23.46875 L 18.78125 -5.15625 L 15.1875 -4.171875 L 3.15625 -18.15625 L 6.921875 -1.90625 Z M 2.53125 -0.6875 "/></g></g></g><g fill="#000000" fill-opacity="1"><g transform="translate(224.379564, 164.000942)"><g><path d="M -0.375 0.046875 L 8.21875 -27.96875 L 12.375 -28.421875 L 26.203125 -2.78125 L 21.21875 -2.25 L 18.140625 -8.125 L 6.4375 -6.875 L 4.59375 -0.484375 Z M 7.703125 -11.171875 L 16.125 -12.0625 L 10.859375 -22.140625 Z M 7.703125 -11.171875 "/></g></g></g><g fill="#000000" fill-opacity="1"><g transform="translate(277.547228, 160.351757)"><g><path d="M 21.71875 -25.984375 L 26.453125 -25.765625 L 25.21875 1.15625 L 20.90625 0.96875 L 8.359375 -18.4375 L 7.5 0.34375 L 2.765625 0.125 L 4 -26.796875 L 8.328125 -26.59375 L 20.859375 -7.203125 Z M 21.71875 -25.984375 "/></g></g></g><g fill="#000000" fill-opacity="1"><g transform="translate(332.749769, 165.264208)"><g/></g></g><g fill="#000000" fill-opacity="1"><g transform="translate(368.57414, 172.552325)"><g><path d="M 39.34375 -15.46875 L 43.8125 -14 L 28 9.171875 L 22.65625 7.421875 L 24.421875 -13.65625 L 12.4375 4.078125 L 7.0625 2.3125 L 9.125 -25.375 L 13.84375 -23.828125 L 12.03125 -2.734375 L 23.9375 -20.515625 L 29.390625 -18.734375 L 27.59375 2.265625 Z M 39.34375 -15.46875 "/></g></g></g><g fill="#000000" fill-opacity="1"><g transform="translate(428.830441, 195.04782)"><g><path d="M 12.90625 7.1875 C 10.476562 5.9375 8.644531 4.390625 7.40625 2.546875 C 6.175781 0.710938 5.566406 -1.328125 5.578125 -3.578125 C 5.585938 -5.828125 6.25 -8.195312 7.5625 -10.6875 C 8.875 -13.175781 10.53125 -15.113281 12.53125 -16.5 C 14.53125 -17.894531 16.710938 -18.65625 19.078125 -18.78125 C 21.441406 -18.90625 23.859375 -18.3125 26.328125 -17 C 28.523438 -15.84375 30.1875 -14.335938 31.3125 -12.484375 C 32.445312 -10.628906 33.007812 -8.578125 33 -6.328125 C 33 -4.078125 32.375 -1.769531 31.125 0.59375 C 29.757812 3.164062 28.078125 5.128906 26.078125 6.484375 C 24.085938 7.847656 21.945312 8.597656 19.65625 8.734375 C 17.375 8.878906 15.125 8.363281 12.90625 7.1875 Z M 14.84375 3.203125 C 16.25 3.953125 17.675781 4.265625 19.125 4.140625 C 20.582031 4.015625 21.960938 3.460938 23.265625 2.484375 C 24.566406 1.515625 25.707031 0.101562 26.6875 -1.75 C 27.945312 -4.144531 28.351562 -6.378906 27.90625 -8.453125 C 27.46875 -10.523438 26.222656 -12.097656 24.171875 -13.171875 C 22.722656 -13.941406 21.234375 -14.253906 19.703125 -14.109375 C 18.179688 -13.960938 16.753906 -13.410156 15.421875 -12.453125 C 14.085938 -11.492188 12.957031 -10.144531 12.03125 -8.40625 C 10.695312 -5.875 10.285156 -3.59375 10.796875 -1.5625 C 11.316406 0.46875 12.664062 2.054688 14.84375 3.203125 Z M 14.84375 3.203125 "/></g></g></g><g fill="#000000" fill-opacity="1"><g transform="translate(477.837426, 223.357261)"><g><path d="M 11.59375 9.15625 C 9.40625 7.519531 7.84375 5.695312 6.90625 3.6875 C 5.976562 1.6875 5.695312 -0.421875 6.0625 -2.640625 C 6.4375 -4.867188 7.46875 -7.109375 9.15625 -9.359375 C 10.84375 -11.609375 12.78125 -13.257812 14.96875 -14.3125 C 17.164062 -15.375 19.441406 -15.78125 21.796875 -15.53125 C 24.160156 -15.28125 26.457031 -14.316406 28.6875 -12.640625 C 30.664062 -11.148438 32.066406 -9.394531 32.890625 -7.375 C 33.722656 -5.363281 33.957031 -3.25 33.59375 -1.03125 C 33.226562 1.175781 32.242188 3.351562 30.640625 5.5 C 28.890625 7.832031 26.921875 9.507812 24.734375 10.53125 C 22.546875 11.5625 20.3125 11.960938 18.03125 11.734375 C 15.75 11.515625 13.601562 10.65625 11.59375 9.15625 Z M 14.140625 5.515625 C 15.421875 6.472656 16.785156 7.003906 18.234375 7.109375 C 19.679688 7.210938 21.125 6.882812 22.5625 6.125 C 24.007812 5.375 25.367188 4.160156 26.640625 2.484375 C 28.265625 0.316406 29.015625 -1.820312 28.890625 -3.9375 C 28.773438 -6.0625 27.796875 -7.816406 25.953125 -9.203125 C 24.628906 -10.191406 23.203125 -10.734375 21.671875 -10.828125 C 20.148438 -10.921875 18.65625 -10.597656 17.1875 -9.859375 C 15.726562 -9.128906 14.40625 -7.976562 13.21875 -6.40625 C 11.5 -4.113281 10.734375 -1.925781 10.921875 0.15625 C 11.109375 2.25 12.179688 4.035156 14.140625 5.515625 Z M 14.140625 5.515625 "/></g></g></g><g fill="#000000" fill-opacity="1"><g transform="translate(521.755243, 259.074136)"><g><path d="M 1.921875 1.984375 L 21.28125 -16.765625 L 26.859375 -11 C 30.503906 -7.238281 32.453125 -3.613281 32.703125 -0.125 C 32.953125 3.363281 31.492188 6.644531 28.328125 9.71875 C 26.359375 11.625 24.226562 12.859375 21.9375 13.421875 C 19.65625 13.984375 17.351562 13.875 15.03125 13.09375 C 12.707031 12.3125 10.523438 10.863281 8.484375 8.75 Z M 8.484375 2.5 L 11.46875 5.59375 C 13.675781 7.863281 15.90625 9.054688 18.15625 9.171875 C 20.40625 9.285156 22.59375 8.3125 24.71875 6.25 C 26.9375 4.101562 28.003906 1.894531 27.921875 -0.375 C 27.835938 -2.644531 26.59375 -5.023438 24.1875 -7.515625 L 21.59375 -10.1875 Z M 8.484375 2.5 "/></g></g></g><g fill="#000000" fill-opacity="1"><g transform="translate(558.815886, 300.783135)"><g/></g></g><g fill="#000000" fill-opacity="1"><g transform="translate(579.884542, 330.657804)"><g><path d="M 39.234375 15.75 L 41.484375 19.875 L 14.078125 25.890625 L 11.390625 20.953125 L 27.140625 6.828125 L 6.25 11.5 L 3.546875 6.53125 L 24.03125 -12.203125 L 26.40625 -7.84375 L 10.640625 6.28125 L 31.484375 1.5 L 34.234375 6.53125 L 18.53125 20.578125 Z M 39.234375 15.75 "/></g></g></g><g fill="#000000" fill-opacity="1"><g transform="translate(608.290982, 388.362961)"><g><path d="M 4.4375 14.078125 C 3.539062 11.503906 3.273438 9.125 3.640625 6.9375 C 4.003906 4.757812 4.960938 2.851562 6.515625 1.21875 C 8.066406 -0.40625 10.171875 -1.671875 12.828125 -2.578125 C 15.492188 -3.492188 18.03125 -3.769531 20.4375 -3.40625 C 22.84375 -3.050781 24.953125 -2.101562 26.765625 -0.5625 C 28.578125 0.96875 29.929688 3.050781 30.828125 5.6875 C 31.628906 8.039062 31.804688 10.28125 31.359375 12.40625 C 30.910156 14.53125 29.910156 16.40625 28.359375 18.03125 C 26.816406 19.664062 24.78125 20.914062 22.25 21.78125 C 19.488281 22.726562 16.914062 23.007812 14.53125 22.625 C 12.144531 22.238281 10.066406 21.3125 8.296875 19.84375 C 6.535156 18.375 5.25 16.453125 4.4375 14.078125 Z M 8.59375 12.515625 C 9.113281 14.023438 9.941406 15.234375 11.078125 16.140625 C 12.222656 17.046875 13.601562 17.585938 15.21875 17.765625 C 16.832031 17.953125 18.632812 17.707031 20.625 17.03125 C 23.1875 16.15625 25.007812 14.8125 26.09375 13 C 27.1875 11.1875 27.363281 9.1875 26.625 7 C 26.09375 5.4375 25.222656 4.1875 24.015625 3.25 C 22.804688 2.3125 21.390625 1.734375 19.765625 1.515625 C 18.140625 1.296875 16.394531 1.503906 14.53125 2.140625 C 11.820312 3.066406 9.957031 4.441406 8.9375 6.265625 C 7.914062 8.097656 7.800781 10.179688 8.59375 12.515625 Z M 8.59375 12.515625 "/></g></g></g><g fill="#000000" fill-opacity="1"><g transform="translate(624.443289, 442.680334)"><g><path d="M 8.890625 22.875 L 5.328125 24.65625 C 4.859375 24.226562 4.453125 23.671875 4.109375 22.984375 C 3.765625 22.296875 3.523438 21.554688 3.390625 20.765625 C 2.878906 17.972656 3.722656 15.554688 5.921875 13.515625 L 11.109375 8.59375 C 11.648438 8.09375 12.007812 7.609375 12.1875 7.140625 C 12.375 6.671875 12.421875 6.1875 12.328125 5.6875 L 12.296875 5.5 L 1.34375 7.46875 L 0.484375 2.71875 L 27.015625 -2.0625 L 28.515625 6.203125 C 29.117188 9.554688 28.878906 12.226562 27.796875 14.21875 C 26.710938 16.207031 24.953125 17.421875 22.515625 17.859375 C 21.046875 18.117188 19.71875 18.019531 18.53125 17.5625 C 17.351562 17.113281 16.351562 16.382812 15.53125 15.375 C 14.707031 14.363281 14.082031 13.164062 13.65625 11.78125 C 13.394531 12.601562 12.847656 13.410156 12.015625 14.203125 L 9.296875 16.84375 C 8.585938 17.539062 8.128906 18.15625 7.921875 18.6875 C 7.710938 19.226562 7.675781 19.875 7.8125 20.625 C 7.96875 21.5 8.328125 22.25 8.890625 22.875 Z M 24.5 6.59375 L 23.921875 3.40625 L 16.109375 4.8125 L 16.640625 7.765625 C 17.003906 9.804688 17.582031 11.253906 18.375 12.109375 C 19.175781 12.972656 20.265625 13.285156 21.640625 13.046875 C 24.234375 12.578125 25.1875 10.425781 24.5 6.59375 Z M 24.5 6.59375 "/></g></g></g><g fill="#000000" fill-opacity="1"><g transform="translate(631.580024, 493.247107)"><g><path d="M 0.09375 2.765625 L 27.03125 1.828125 L 27.203125 6.765625 L 15.171875 7.1875 L 27.59375 17.953125 L 27.8125 23.953125 L 13.921875 11.75 C 13.421875 12.832031 12.570312 13.769531 11.375 14.5625 L 6.78125 17.765625 C 5.988281 18.328125 5.445312 18.863281 5.15625 19.375 C 4.875 19.894531 4.75 20.535156 4.78125 21.296875 C 4.8125 22.203125 5.0625 22.988281 5.53125 23.65625 L 1.75 24.9375 C 1.34375 24.46875 1.019531 23.863281 0.78125 23.125 C 0.539062 22.382812 0.410156 21.613281 0.390625 20.8125 C 0.285156 17.945312 1.460938 15.671875 3.921875 13.984375 L 9.78125 9.890625 C 10.300781 9.515625 10.695312 9.132812 10.96875 8.75 C 11.25 8.375 11.441406 7.894531 11.546875 7.3125 L 0.265625 7.703125 Z M 0.09375 2.765625 "/></g></g></g><g fill="#000000" fill-opacity="1"><g transform="translate(631.376291, 544.457485)"><g><path d="M -1.53125 11.0625 C -1.195312 7.925781 -0.226562 5.546875 1.375 3.921875 C 2.976562 2.304688 5.148438 1.519531 7.890625 1.5625 L 8.078125 6.25 C 4.804688 6.351562 2.984375 8.179688 2.609375 11.734375 C 2.441406 13.265625 2.617188 14.488281 3.140625 15.40625 C 3.671875 16.332031 4.488281 16.851562 5.59375 16.96875 C 6.613281 17.070312 7.421875 16.722656 8.015625 15.921875 C 8.617188 15.128906 9.25 13.8125 9.90625 11.96875 C 10.519531 10.257812 11.191406 8.804688 11.921875 7.609375 C 12.648438 6.410156 13.550781 5.53125 14.625 4.96875 C 15.707031 4.414062 17.078125 4.226562 18.734375 4.40625 C 20.316406 4.570312 21.679688 5.128906 22.828125 6.078125 C 23.984375 7.023438 24.835938 8.253906 25.390625 9.765625 C 25.941406 11.273438 26.113281 12.972656 25.90625 14.859375 C 25.644531 17.347656 24.773438 19.316406 23.296875 20.765625 C 21.816406 22.222656 19.921875 22.960938 17.609375 22.984375 L 17.34375 18.609375 C 20.007812 18.359375 21.488281 16.890625 21.78125 14.203125 C 21.914062 12.878906 21.6875 11.769531 21.09375 10.875 C 20.5 9.988281 19.648438 9.488281 18.546875 9.375 C 17.441406 9.257812 16.550781 9.570312 15.875 10.3125 C 15.195312 11.050781 14.523438 12.367188 13.859375 14.265625 C 13.273438 15.960938 12.644531 17.410156 11.96875 18.609375 C 11.289062 19.816406 10.4375 20.710938 9.40625 21.296875 C 8.375 21.878906 7.03125 22.082031 5.375 21.90625 C 3.8125 21.738281 2.472656 21.171875 1.359375 20.203125 C 0.253906 19.242188 -0.550781 17.976562 -1.0625 16.40625 C -1.582031 14.832031 -1.738281 13.050781 -1.53125 11.0625 Z M -1.53125 11.0625 "/></g></g></g></g></g><g transform="matrix(1, 0, 0, 1, 411, 543)"><g clip-path="url(#5200588e18)"><g fill="#000000" fill-opacity="1"><g transform="translate(0.909737, 242.112587)"><g><path d="M 131.171875 -121.15625 L 83.796875 -0.140625 L 16.28125 -172.671875 C 14.226562 -178.003906 12.203125 -182.003906 10.203125 -184.671875 C 8.203125 -187.347656 6.554688 -189.128906 5.265625 -190.015625 C 3.972656 -190.898438 3.328125 -191.34375 3.328125 -191.34375 L 30.6875 -191.34375 C 30.6875 -191.34375 30.507812 -191.097656 30.15625 -190.609375 C 29.800781 -190.117188 29.507812 -189.226562 29.28125 -187.9375 C 29.0625 -186.65625 29.148438 -184.789062 29.546875 -182.34375 C 29.953125 -179.894531 30.910156 -176.671875 32.421875 -172.671875 L 90.34375 -24.6875 L 129.703125 -125.03125 L 111.015625 -172.671875 C 108.972656 -178.003906 106.953125 -182.003906 104.953125 -184.671875 C 102.953125 -187.347656 101.328125 -189.128906 100.078125 -190.015625 C 98.828125 -190.898438 98.203125 -191.34375 98.203125 -191.34375 L 125.5625 -191.34375 C 125.5625 -191.34375 125.359375 -191.097656 124.953125 -190.609375 C 124.554688 -190.117188 124.25 -189.226562 124.03125 -187.9375 C 123.8125 -186.65625 123.898438 -184.789062 124.296875 -182.34375 C 124.691406 -179.894531 125.691406 -176.671875 127.296875 -172.671875 L 185.21875 -24.6875 L 243.125 -172.671875 C 244.632812 -176.671875 245.585938 -179.894531 245.984375 -182.34375 C 246.390625 -184.789062 246.476562 -186.65625 246.25 -187.9375 C 246.03125 -189.226562 245.742188 -190.117188 245.390625 -190.609375 C 245.035156 -191.097656 244.859375 -191.34375 244.859375 -191.34375 L 259 -191.34375 C 259 -191.34375 258.351562 -190.898438 257.0625 -190.015625 C 255.769531 -189.128906 254.144531 -187.347656 252.1875 -184.671875 C 250.238281 -182.003906 248.238281 -178.003906 246.1875 -172.671875 L 178.546875 -0.140625 Z M 131.171875 -121.15625 "/></g></g></g></g></g><path stroke-linecap="butt" transform="matrix(0.430904, -0.613746, 0.613746, 0.430904, 250.061584, 785.235809)" fill="none" stroke-linejoin="miter" d="M -0.0000514927 2.000015 L 604.893444 2.001725 " stroke="#000000" stroke-width="4" stroke-opacity="1" stroke-miterlimit="4"/></svg>