<svg xmlns="http://www.w3.org/2000/svg" xmlns:xlink="http://www.w3.org/1999/xlink" width="1920" zoomAndPan="magnify" viewBox="0 0 1440 809.999993" height="1080" preserveAspectRatio="xMidYMid meet" version="1.0"><defs><g/><clipPath id="f34165571a"><rect x="0" width="236" y="0" height="466"/></clipPath><clipPath id="3d0dcaca0c"><path d="M 0.921875 0.71875 L 764.359375 0.71875 L 764.359375 797.761719 L 0.921875 797.761719 Z M 0.921875 0.71875 " clip-rule="nonzero"/></clipPath><clipPath id="106ef8499f"><path d="M 43 69.253906 L 713 69.253906 L 713 733 L 43 733 Z M 43 69.253906 " clip-rule="nonzero"/></clipPath><clipPath id="b67edd8bac"><path d="M 671.628906 591.164062 C 673.378906 589.570312 675.289062 587.980469 677.042969 586.386719 C 677.359375 586.546875 677.519531 586.863281 677.835938 587.023438 C 677.519531 587.820312 677.359375 588.933594 676.882812 589.570312 C 658.097656 612.496094 642.019531 637.804688 619.890625 657.863281 C 589.007812 685.882812 552.871094 704.03125 513.070312 715.335938 C 471.042969 727.273438 428.0625 731.730469 384.601562 732.6875 C 357.21875 733.960938 298 729.183594 239.734375 713.742188 C 212.988281 706.738281 187.199219 697.027344 163.003906 683.335938 C 122.566406 660.414062 94.070312 626.820312 75.605469 584.476562 C 60.480469 550.089844 52.523438 513.792969 48.222656 476.542969 C 42.492188 427.191406 42.015625 377.84375 46.949219 328.492188 C 52.523438 273.25 69.398438 221.832031 96.9375 173.914062 C 114.289062 143.507812 138.964844 120.585938 170.007812 104.347656 C 191.339844 93.203125 212.511719 81.742188 236.074219 76.328125 C 247.855469 73.621094 259.792969 72.03125 271.734375 70.121094 C 272.847656 69.960938 274.121094 70.277344 275.234375 70.914062 C 262.023438 73.941406 248.808594 77.125 235.59375 80.148438 C 235.753906 80.625 235.753906 81.105469 235.914062 81.582031 C 244.511719 80.148438 253.105469 78.558594 261.703125 77.285156 C 310.578125 70.121094 359.609375 68.527344 376.164062 70.277344 C 421.851562 72.03125 467.222656 76.488281 511.796875 86.996094 C 546.503906 95.113281 579.457031 107.371094 609.382812 127.429688 C 650.136719 154.652344 675.769531 192.859375 690.890625 238.867188 C 703.148438 275.957031 709.039062 314.324219 711.269531 353.167969 C 713.335938 388.507812 712.542969 423.847656 708.085938 459.191406 C 702.351562 504.402344 692.003906 548.339844 671.46875 589.410156 C 671.308594 589.890625 671.152344 590.367188 670.992188 590.84375 C 671.152344 590.84375 671.46875 591.003906 671.628906 591.164062 Z M 374.414062 77.441406 C 352.761719 78.558594 330.316406 79.351562 308.027344 80.945312 C 274.757812 83.492188 241.964844 88.109375 210.125 98.773438 C 190.542969 105.300781 171.441406 113.261719 155.203125 126.476562 C 133.871094 143.667969 116.199219 164.203125 102.03125 187.765625 C 88.660156 209.734375 80.859375 233.929688 74.808594 258.765625 C 62.390625 309.230469 59.367188 360.648438 61.753906 412.386719 C 63.507812 449.957031 68.761719 487.050781 79.746094 523.1875 C 98.53125 585.113281 134.1875 634.304688 190.382812 667.574219 C 232.730469 692.570312 278.898438 705.941406 327.292969 711.992188 C 374.414062 718.675781 403.226562 717.882812 457.511719 710.558594 C 507.339844 703.714844 553.664062 687.632812 595.054688 658.820312 C 614.636719 645.128906 633.261719 630.484375 646.953125 610.105469 C 667.011719 580.019531 680.542969 547.226562 689.457031 512.519531 C 703.46875 457.28125 707.289062 401.242188 702.671875 344.570312 C 699.804688 307.796875 693.121094 271.820312 680.703125 237.113281 C 663.191406 188.71875 632.945312 150.992188 587.734375 125.839844 C 561.464844 111.191406 533.289062 101.480469 504.15625 94.796875 C 450.828125 82.539062 397.019531 78.398438 374.414062 77.441406 Z M 287.8125 715.015625 C 265.363281 709.125 243.238281 702.757812 221.90625 694.160156 C 147.71875 664.234375 97.574219 611.539062 73.21875 534.96875 C 63.1875 503.605469 58.09375 471.128906 54.59375 438.496094 C 54.433594 439.132812 54.433594 439.769531 54.433594 440.40625 C 54.910156 447.25 55.386719 453.9375 56.023438 460.78125 C 59.84375 498.828125 67.328125 536.082031 82.292969 571.582031 C 101.714844 618.066406 132.4375 654.363281 177.171875 678.402344 C 201.050781 691.296875 226.363281 700.527344 252.789062 707.054688 C 264.089844 709.921875 276.03125 712.308594 287.8125 715.015625 Z M 287.8125 715.015625 " clip-rule="nonzero"/></clipPath><clipPath id="5e455e3c49"><path d="M 0 0.253906 L 670 0.253906 L 670 664 L 0 664 Z M 0 0.253906 " clip-rule="nonzero"/></clipPath><clipPath id="e1a3810518"><path d="M 628.628906 522.164062 C 630.378906 520.570312 632.289062 518.980469 634.042969 517.386719 C 634.359375 517.546875 634.519531 517.863281 634.835938 518.023438 C 634.519531 518.820312 634.359375 519.933594 633.882812 520.570312 C 615.097656 543.496094 599.019531 568.804688 576.890625 588.863281 C 546.007812 616.882812 509.871094 635.03125 470.070312 646.335938 C 428.042969 658.273438 385.0625 662.730469 341.601562 663.6875 C 314.21875 664.960938 255 660.183594 196.734375 644.742188 C 169.988281 637.738281 144.199219 628.027344 120.003906 614.335938 C 79.566406 591.414062 51.070312 557.820312 32.605469 515.476562 C 17.480469 481.089844 9.523438 444.792969 5.222656 407.542969 C -0.507812 358.191406 -0.984375 308.84375 3.949219 259.492188 C 9.523438 204.25 26.398438 152.832031 53.9375 104.914062 C 71.289062 74.507812 95.964844 51.585938 127.007812 35.347656 C 148.339844 24.203125 169.511719 12.742188 193.074219 7.328125 C 204.855469 4.621094 216.792969 3.03125 228.734375 1.121094 C 229.847656 0.960938 231.121094 1.277344 232.234375 1.914062 C 219.023438 4.941406 205.808594 8.125 192.59375 11.148438 C 192.753906 11.625 192.753906 12.105469 192.914062 12.582031 C 201.511719 11.148438 210.105469 9.558594 218.703125 8.285156 C 267.578125 1.121094 316.609375 -0.472656 333.164062 1.277344 C 378.851562 3.03125 424.222656 7.488281 468.796875 17.996094 C 503.503906 26.113281 536.457031 38.371094 566.382812 58.429688 C 607.136719 85.652344 632.769531 123.859375 647.890625 169.867188 C 660.148438 206.957031 666.039062 245.324219 668.269531 284.167969 C 670.335938 319.507812 669.542969 354.847656 665.085938 390.191406 C 659.351562 435.402344 649.003906 479.339844 628.46875 520.410156 C 628.308594 520.890625 628.152344 521.367188 627.992188 521.84375 C 628.152344 521.84375 628.46875 522.003906 628.628906 522.164062 Z M 331.414062 8.441406 C 309.761719 9.558594 287.316406 10.351562 265.027344 11.945312 C 231.757812 14.492188 198.964844 19.109375 167.125 29.773438 C 147.542969 36.300781 128.441406 44.261719 112.203125 57.476562 C 90.871094 74.667969 73.199219 95.203125 59.03125 118.765625 C 45.660156 140.734375 37.859375 164.929688 31.808594 189.765625 C 19.390625 240.230469 16.367188 291.648438 18.753906 343.386719 C 20.507812 380.957031 25.761719 418.050781 36.746094 454.1875 C 55.53125 516.113281 91.1875 565.304688 147.382812 598.574219 C 189.730469 623.570312 235.898438 636.941406 284.292969 642.992188 C 331.414062 649.675781 360.226562 648.882812 414.511719 641.558594 C 464.339844 634.714844 510.664062 618.632812 552.054688 589.820312 C 571.636719 576.128906 590.261719 561.484375 603.953125 541.105469 C 624.011719 511.019531 637.542969 478.226562 646.457031 443.519531 C 660.46875 388.28125 664.289062 332.242188 659.671875 275.570312 C 656.804688 238.796875 650.121094 202.820312 637.703125 168.113281 C 620.191406 119.71875 589.945312 81.992188 544.734375 56.839844 C 518.464844 42.191406 490.289062 32.480469 461.15625 25.796875 C 407.828125 13.539062 354.019531 9.398438 331.414062 8.441406 Z M 244.8125 646.015625 C 222.363281 640.125 200.238281 633.757812 178.90625 625.160156 C 104.71875 595.234375 54.574219 542.539062 30.21875 465.96875 C 20.1875 434.605469 15.09375 402.128906 11.59375 369.496094 C 11.433594 370.132812 11.433594 370.769531 11.433594 371.40625 C 11.910156 378.25 12.386719 384.9375 13.023438 391.78125 C 16.84375 429.828125 24.328125 467.082031 39.292969 502.582031 C 58.714844 549.066406 89.4375 585.363281 134.171875 609.402344 C 158.050781 622.296875 183.363281 631.527344 209.789062 638.054688 C 221.089844 640.921875 233.03125 643.308594 244.8125 646.015625 Z M 244.8125 646.015625 " clip-rule="nonzero"/></clipPath><clipPath id="598b6760b1"><rect x="0" width="670" y="0" height="664"/></clipPath><clipPath id="97595f7502"><rect x="0" width="765" y="0" height="798"/></clipPath><clipPath id="f8a7788066"><rect x="0" width="305" y="0" height="395"/></clipPath><clipPath id="d1d02f21cd"><path d="M 0.800781 0.199219 L 369.199219 0.199219 L 369.199219 368.601562 L 0.800781 368.601562 Z M 0.800781 0.199219 " clip-rule="nonzero"/></clipPath><clipPath id="682b82f0d2"><rect x="0" width="370" y="0" height="369"/></clipPath><clipPath id="d57d98733e"><rect x="0" width="765" y="0" height="798"/></clipPath></defs><g transform="matrix(1, 0, 0, 1, 337, 6)"><g clip-path="url(#d57d98733e)"><g transform="matrix(1, 0, 0, 1, 116, 31)"><g clip-path="url(#f34165571a)"><g fill="#000000" fill-opacity="1"><g transform="translate(0.792873, 365.303845)"><g><path d="M 11.9375 0 L 11.9375 -3.40625 L 19.109375 -3.40625 C 27.066406 -3.40625 33.257812 -5.222656 37.6875 -8.859375 C 42.125 -12.503906 44.34375 -18.535156 44.34375 -26.953125 L 44.34375 -217.625 C 44.34375 -225.582031 42.125 -231.320312 37.6875 -234.84375 C 33.257812 -238.375 27.066406 -240.140625 19.109375 -240.140625 L 11.9375 -240.140625 L 11.9375 -243.546875 L 108.8125 -243.546875 C 139.0625 -243.546875 161.519531 -238.085938 176.1875 -227.171875 C 190.851562 -216.265625 198.1875 -200.578125 198.1875 -180.109375 C 198.1875 -167.140625 195.625 -156.445312 190.5 -148.03125 C 185.382812 -139.625 178.734375 -132.863281 170.546875 -127.75 C 162.367188 -122.632812 153.84375 -118.820312 144.96875 -116.3125 L 190 -44 C 197.050781 -32.851562 202.847656 -24.378906 207.390625 -18.578125 C 211.941406 -12.785156 215.921875 -8.804688 219.328125 -6.640625 C 222.742188 -4.484375 226.15625 -3.40625 229.5625 -3.40625 L 230.59375 -3.40625 L 230.59375 0 L 223.765625 0 C 209.671875 0 198.53125 -0.738281 190.34375 -2.21875 C 182.15625 -3.695312 175.445312 -6.648438 170.21875 -11.078125 C 164.988281 -15.515625 159.644531 -22.171875 154.1875 -31.046875 L 104.03125 -113.59375 L 83.90625 -113.59375 L 83.90625 -26.953125 C 83.90625 -18.535156 86.125 -12.503906 90.5625 -8.859375 C 95 -5.222656 101.195312 -3.40625 109.15625 -3.40625 L 116.3125 -3.40625 L 116.3125 0 Z M 83.90625 -117 L 106.765625 -117 C 124.273438 -117 136.835938 -121.71875 144.453125 -131.15625 C 152.078125 -140.59375 155.890625 -156.113281 155.890625 -177.71875 C 155.890625 -199.78125 152.019531 -215.695312 144.28125 -225.46875 C 136.550781 -235.25 123.816406 -240.140625 106.078125 -240.140625 L 83.90625 -240.140625 Z M 83.90625 -117 "/></g></g></g></g></g><g clip-path="url(#3d0dcaca0c)"><g transform="matrix(1, 0, 0, 1, 0, 0.000000000000039968)"><g clip-path="url(#97595f7502)"><g clip-path="url(#106ef8499f)"><g clip-path="url(#b67edd8bac)"><g transform="matrix(1, 0, 0, 1, 43, 69)"><g clip-path="url(#598b6760b1)"><g clip-path="url(#5e455e3c49)"><g clip-path="url(#e1a3810518)"><rect x="-1152.992" width="2985.984" fill="#000000" height="1679.615985" y="-509.807996" fill-opacity="1"/></g></g></g></g></g></g></g></g></g><g transform="matrix(1, 0, 0, 1, 376, 326)"><g clip-path="url(#f8a7788066)"><g fill="#000000" fill-opacity="1"><g transform="translate(0.0412008, 305.1316)"><g><path d="M 81.390625 0 L 24.9375 -186.5625 C 23.21875 -192.488281 20.875 -196.5 17.90625 -198.59375 C 14.945312 -200.695312 10.503906 -201.75 4.578125 -201.75 L 2 -201.75 L 2 -204.609375 L 85.40625 -204.609375 L 85.40625 -201.75 L 77.65625 -201.75 C 66.195312 -201.75 60.46875 -197.738281 60.46875 -189.71875 C 60.46875 -188 60.707031 -185.941406 61.1875 -183.546875 C 61.664062 -181.160156 62.285156 -178.628906 63.046875 -175.953125 L 91.421875 -81.390625 C 94.285156 -71.835938 96.863281 -62.234375 99.15625 -52.578125 C 101.445312 -42.929688 103.835938 -32.664062 106.328125 -21.78125 C 107.273438 -27.125 108.703125 -33.378906 110.609375 -40.546875 C 112.523438 -47.710938 114.4375 -55.5 116.34375 -63.90625 L 151.3125 -202.609375 L 165.640625 -202.609375 L 206.046875 -82.53125 C 209.867188 -71.257812 213.453125 -59.84375 216.796875 -48.28125 C 220.140625 -36.726562 222.671875 -27.320312 224.390625 -20.0625 C 226.109375 -27.707031 227.734375 -34.632812 229.265625 -40.84375 C 230.796875 -47.050781 232.707031 -54.546875 235 -63.328125 L 263.359375 -172.8125 C 264.128906 -176.050781 264.703125 -178.910156 265.078125 -181.390625 C 265.460938 -183.878906 265.65625 -186.082031 265.65625 -188 C 265.65625 -193.15625 264.125 -196.734375 261.0625 -198.734375 C 258.007812 -200.742188 253.140625 -201.75 246.453125 -201.75 L 237.578125 -201.75 L 237.578125 -204.609375 L 296.03125 -204.609375 L 296.03125 -201.75 L 289.734375 -201.75 C 283.804688 -201.75 279.265625 -200.125 276.109375 -196.875 C 272.960938 -193.625 270.242188 -187.796875 267.953125 -179.390625 L 222.09375 0 L 200.609375 0 L 145.578125 -167.640625 L 104.03125 0 Z M 81.390625 0 "/></g></g></g></g></g><g transform="matrix(1, 0, 0, 1, 195, 205)"><g clip-path="url(#682b82f0d2)"><g clip-path="url(#d1d02f21cd)"><path stroke-linecap="butt" transform="matrix(0.0495988, -0.0495988, 0.0495988, 0.0495988, 1.835155, 365.538117)" fill="none" stroke-linejoin="miter" d="M -0.0016487 20.021699 L 7343.261108 19.98232 " stroke="#000000" stroke-width="40" stroke-opacity="1" stroke-miterlimit="4"/></g></g></g></g></g></svg>